<?xml version="1.0" encoding="UTF-8" standalone="no"?>
<svg id="svg189" version="1.1" viewBox="0 0 16 16" height="16" width="16" xmlns="http://www.w3.org/2000/svg" xmlns:svg="http://www.w3.org/2000/svg" xmlns:rdf="http://www.w3.org/1999/02/22-rdf-syntax-ns#" xmlns:cc="http://creativecommons.org/ns#" xmlns:dc="http://purl.org/dc/elements/1.1/">
  <metadata id="metadata11">
    <rdf:RDF>
      <cc:Work rdf:about="">
        <dc:format>image/svg+xml</dc:format>
        <dc:type rdf:resource="http://purl.org/dc/dcmitype/StillImage" />
      </cc:Work>
    </rdf:RDF>
  </metadata>
  <defs id="defs9" />
  <path id="rect43-3" d="M 1.341797,0 C 0.598499,0 0,0.587403 0,1.3164062 V 1.6230469 14.376953 14.683594 C 0,15.412597 0.598499,16 1.341797,16 H 14.658203 C 15.4015,16 16,15.412597 16,14.683594 V 14.376953 1.6230469 1.3164062 C 16,0.587403 15.4015,0 14.658203,0 Z M 8,2 A 1.5,1.5 0 0 1 9.5,3.5 1.5,1.5 0 0 1 8,5 1.5,1.5 0 0 1 6.5,3.5 1.5,1.5 0 0 1 8,2 Z M 5,6 h 4 v 6 h 3 v 2 H 4 V 12 H 7 V 8 H 5 Z" style="opacity:1;fill:#3584e4;fill-opacity:1;stroke-width:0.15236;marker:none" />
</svg>
